<svg xmlns="http://www.w3.org/2000/svg" viewBox="0 0 100 193"><defs><g id="s"><path d="M18 16H82C82 42 70 60 55 60V78C68 79 74 84 74 92H26C26 84 32 79 45 78V60C30 60 18 42 18 16Z" fill="#c81e1e" stroke="#2b2118" stroke-width="3" stroke-linejoin="round"/><path d="M22 28H78" stroke="#f3d27a" stroke-width="4"/></g></defs><rect x="0.5" y="0.5" width="99" height="192" rx="8" fill="#fdfdf7" stroke="#d8ccb0"/><rect x="5" y="5" width="90" height="183" rx="5" fill="none" stroke="#c9b98a"/><text x="8" y="20" font-family="Georgia, 'Times New Roman', serif" font-size="14" font-weight="700" fill="#c81e1e">2</text><use href="#s" transform="translate(8.5 25.5) scale(0.11)"/><g transform="rotate(180 50 96.5)"><text x="8" y="20" font-family="Georgia, 'Times New Roman', serif" font-size="14" font-weight="700" fill="#c81e1e">2</text><use href="#s" transform="translate(8.5 25.5) scale(0.11)"/></g><use href="#s" transform="translate(40 52) scale(0.2)"/><use href="#s" transform="translate(40 122) scale(0.2)"/></svg>
