<svg xmlns="http://www.w3.org/2000/svg" viewBox="0 0 100 193"><defs><g id="s"><circle cx="50" cy="50" r="45" fill="#d3a12a" stroke="#2b2118" stroke-width="3"/><circle cx="50" cy="50" r="33" fill="none" stroke="#2b2118" stroke-width="2.5"/><path d="M72 50L59.2 53.8 65.6 65.6 53.8 59.2 50 72 46.2 59.2 34.4 65.6 40.8 53.8 28 50 40.8 46.2 34.4 34.4 46.2 40.8 50 28 53.8 40.8 65.6 34.4 59.2 46.2Z" fill="#c8302e" stroke="#2b2118" stroke-width="2" stroke-linejoin="round"/></g></defs><rect x="0.5" y="0.5" width="99" height="192" rx="8" fill="#fdfdf7" stroke="#d8ccb0"/><rect x="5" y="5" width="90" height="183" rx="5" fill="none" stroke="#c9b98a"/><text x="8" y="20" font-family="Georgia, 'Times New Roman', serif" font-size="14" font-weight="700" fill="#d3a12a">F</text><use href="#s" transform="translate(8.5 25.5) scale(0.11)"/><g transform="rotate(180 50 96.5)"><text x="8" y="20" font-family="Georgia, 'Times New Roman', serif" font-size="14" font-weight="700" fill="#d3a12a">F</text><use href="#s" transform="translate(8.5 25.5) scale(0.11)"/></g><rect x="12" y="30" width="76" height="140" rx="3" fill="#f4eddc" stroke="#e2d7bd"/><text x="50" y="128" text-anchor="middle" font-family="Georgia, 'Times New Roman', serif" font-size="88" font-weight="700" fill="#d3a12a" opacity="0.14">F</text><circle cx="50" cy="58" r="9" fill="#d3a12a" stroke="#2b2118" stroke-width="1.5"/><path d="M38 70H62L67 114H33Z" fill="#d3a12a" stroke="#2b2118" stroke-width="1.5" stroke-linejoin="round"/><path d="M38 114H47V158H38Z" fill="#d3a12a" stroke="#2b2118" stroke-width="1.5" stroke-linejoin="round"/><path d="M53 114H62V158H53Z" fill="#d3a12a" stroke="#2b2118" stroke-width="1.5" stroke-linejoin="round"/><path d="M34 158H49V163H34Z" fill="#d3a12a" stroke="#2b2118" stroke-width="1.5" stroke-linejoin="round"/><path d="M51 158H66V163H51Z" fill="#d3a12a" stroke="#2b2118" stroke-width="1.5" stroke-linejoin="round"/><path d="M62 74L74 96L70 99L58 80Z" fill="#d3a12a" stroke="#2b2118" stroke-width="1.5" stroke-linejoin="round"/><use href="#s" transform="translate(69 92) scale(0.16)"/></svg>
